HIERARCHY
ROOT ui
{
	 OFFSET 0 0 0
	 CHANNELS 3 XPosition YPosition Z Position
	 EndSite
	 {
	 OFFSET 0 -1 0
	 }
}
ROOT li
{
	 OFFSET 0 0 0
	 CHANNELS 3 XPosition YPosition Z Position
	 EndSite
	 {
	 OFFSET 0 -1 0
	 }
}
ROOT ul
{
	 OFFSET 0 0 0
	 CHANNELS 3 XPosition YPosition Z Position
	 EndSite
	 {
	 OFFSET 0 -1 0
	 }
}
ROOT ll
{
	 OFFSET 0 0 0
	 CHANNELS 3 XPosition YPosition Z Position
	 EndSite
	 {
	 OFFSET 0 -1 0
	 }
}
ROOT tt
{
	 OFFSET 0 0 0
	 CHANNELS 3 XPosition YPosition Z Position
	 EndSite
	 {
	 OFFSET 0 -1 0
	 }
}
ROOT tb
{
	 OFFSET 0 0 0
	 CHANNELS 3 XPosition YPosition Z Position
	 EndSite
	 {
	 OFFSET 0 -1 0
	 }
}
ROOT td
{
	 OFFSET 0 0 0
	 CHANNELS 3 XPosition YPosition Z Position
	 EndSite
	 {
	 OFFSET 0 -1 0
	 }
}
ROOT v
{
	 OFFSET 0 0 0
	 CHANNELS 3 XPosition YPosition Z Position
	 EndSite
	 {
	 OFFSET 0 -1 0
	 }
}
ROOT bn
{
	 OFFSET 0 0 0
	 CHANNELS 3 XPosition YPosition Z Position
	 EndSite
	 {
	 OFFSET 0 -1 0
	 }
}
MOTION
Frames: 29
Frame Time: 0.002
0.002857585906982422	-1.8075600266456604E-4	0		0.513889892578125	-2.428903564453125	0		-1.0211140747070313	0.0869001693725586	0		-0.78507275390625	-2.57433056640625	0		1.43116455078125	-0.7684796752929688	0		3.229755859375	-0.1853961181640625	0		4.6903388671875	-0.14904153442382811	0		5.575791015625	0.1156748046875	0		-0.17166456604003907	5.912529296875	0		
-0.052440013885498044	-0.002239305019378662	0		0.4833314208984375	-2.43034130859375	0		-1.020367919921875	0.08723464965820313	0		-0.7506915283203125	-2.5794599609375	0		1.425725341796875	-0.7753416137695313	0		3.196242431640625	-0.2030977325439453	0		4.6710859375	-0.14708848571777344	0		5.57654052734375	0.11527137756347657	0		-0.18539434814453126	5.902962890625	0		
-0.002787116050720215	-0.006656091213226318	0		0.5018270263671875	-2.424419921875	0		-1.0236868286132812	0.0846222915649414	0		-0.796143310546875	-2.5675595703125	0		1.426342041015625	-0.7752982788085937	0		3.21292626953125	-0.2034737548828125	0		4.68277685546875	-0.14757562255859374	0		5.5821591796875	0.10675480651855469	0		-0.04970560073852539	5.923455078125	0		
-0.05106970977783203	-0.0018091119527816773	0		0.45713677978515627	-2.427687744140625	0		-1.0189757080078126	0.08790142822265624	0		-0.78590869140625	-2.57538671875	0		1.4269066162109374	-0.775272705078125	0		3.2207060546875	-0.19276438903808593	0		4.669408203125	-0.14877337646484376	0		5.56793994140625	0.11445694732666016	0		-0.04830347442626953	5.9236650390625	0		
0.0025251400470733642	-0.0023127450942993164	0		0.4864201049804687	-2.42793896484375	0		-1.0183646240234374	0.08822535705566406	0		-0.8195726318359375	-2.569642822265625	0		1.4334984130859374	-0.7683451538085937	0		3.24835791015625	-0.18734696960449218	0		4.68506689453125	-0.1433842315673828	0		5.5826591796875	0.12174300384521484	0		-0.16608645629882812	5.91344140625	0		
0.006094222068786621	8.256880044937133E-4	0		0.4616965637207031	-2.422490234375	0		-1.0178233642578125	0.0885396957397461	0		-0.7474708862304688	-2.576318115234375	0		1.43087255859375	-0.772315673828125	0		3.2057861328125	-0.19302272033691406	0		4.669685546875	-0.1356133270263672	0		5.56909912109375	0.11336943817138671	0		-0.1647721710205078	5.913642578125	0		
0.0035074141025543213	-0.0019689639806747435	0		0.5048315734863281	-2.42196875	0		-1.0173580322265625	0.08884281921386719	0		-0.8322097778320312	-2.563903076171875	0		1.431221435546875	-0.772343994140625	0		3.24929052734375	-0.18787332153320313	0		4.6770390625	-0.1421742401123047	0		5.57956689453125	0.11264566040039062	0		-0.178652099609375	5.9040341796875	0		
-0.04911594390869141	-0.0010947020053863525	0		0.47587432861328127	-2.421490966796875	0		-1.016973876953125	0.08913309478759765	0		-0.7592642822265625	-2.569634765625	0		1.42844677734375	-0.7753480224609375	0		3.1975869140625	-0.19145718383789062	0		4.666392578125	-0.14251414489746095	0		5.5799541015625	0.11203181457519532	0		-0.04318299102783203	5.924376953125	0		
1.116809993982315E-4	-0.005627501964569092	0		0.45774755859375	-2.427171630859375	0		-1.0166739501953126	0.08940913391113281	0		-0.82135205078125	-2.57053857421875	0		1.4316688232421875	-0.7724502563476563	0		3.2138466796875	-0.19198197937011718	0		4.6756318359375	-0.1451443328857422	0		5.57025830078125	0.11153781890869141	0		-0.16123416137695312	5.91416162109375	0		
-0.045567825317382814	0.0031341309547424315	0		0.4886587524414063	-2.424544921875	0		-1.00054150390625	0.08344774627685547	0		-0.7814892578125	-2.56986181640625	0		1.4348236083984376	-0.7685673217773438	0		3.21515087890625	-0.18331613159179688	0		4.6689013671875	-0.13956724548339844	0		5.5845888671875	0.11869938659667968	0		-0.16021755981445313	5.91430517578125	0		
0.007544149875640869	0.0015023239850997924	0		0.49048876953125	-2.422531982421875	0		-1.00720166015625	0.09778807830810547	0		-0.7817069091796875	-2.5696484375	0		1.4348502197265625	-0.7686543579101562	0		3.244296142578125	-0.18105287170410156	0		4.6820400390625	-0.13827593994140625	0		5.58473583984375	0.11804962158203125	0		-0.0259742431640625	5.93556103515625	0		
0.004570751190185547	-0.0013615260124206544	0		0.5042482604980468	-2.421701904296875	0		-1.016232666015625	0.09014481353759765	0		-0.7860361328125	-2.57339306640625	0		1.43176025390625	-0.772707763671875	0		3.20224560546875	-0.1877926483154297	0		4.671091796875	-0.13864775085449219	0		5.58070703125	0.10945921325683594	0		-0.15842987060546876	5.9145498046875	0		
0.004591221809387207	-0.001280714988708496	0		0.483843505859375	-2.429398193359375	0		-1.0162003784179687	0.09035749053955078	0		-0.7962322387695312	-2.565067626953125	0		1.428638427734375	-0.7757680053710938	0		3.218240234375	-0.18835418701171874	0		4.6670087890625	-0.14511180114746094	0		5.58074169921875	0.10881971740722657	0		-0.03848545455932617	5.9249453125	0		
5.198649764060974E-4	-0.005153876781463623	0		0.5104953918457031	-2.431779296875	0		-1.016202880859375	0.09055321502685547	0		-0.7887108764648437	-2.575013671875	0		1.431571044921875	-0.7729204711914063	0		3.223101318359375	-0.1957573699951172	0		4.67106298828125	-0.1396823272705078	0		5.5807412109375	0.10819384765625	0		-0.1720653533935547	5.90495849609375	0		
0.007584925174713135	0.0018013210296630858	0		0.4603067626953125	-2.42205419921875	0		-1.011169921875	0.094658935546875	0		-0.7849951782226563	-2.570920654296875	0		1.4345013427734374	-0.7690770263671876	0		3.228245849609375	-0.1821574401855469	0		4.6710107421875	-0.14018043518066406	0		5.5848349609375	0.11552828216552734	0		-0.02293268394470215	5.93587646484375	0		
0.007539342880249023	0.0018488670587539673	0		0.5139083862304688	-2.427850341796875	0		-1.0162632446289062	0.09089530181884765	0		-0.7853310546875	-2.570783447265625	0		1.4343687744140625	-0.7691904907226562	0		3.21104931640625	-0.19122265625	0		4.67094921875	-0.14065908813476563	0		5.58480224609375	0.11494651031494141	0		-0.022308687210083007	5.93592724609375	0		
0.007493793964385986	0.0018883930444717407	0		0.4576551818847656	-2.42403662109375	0		-1.01629931640625	0.09104361724853516	0		-0.7876793212890625	-2.5726298828125	0		1.4311824951171874	-0.7732577514648438	0		3.257155517578125	-0.18020535278320313	0		4.670888671875	-0.1411151123046875	0		5.580650390625	0.10645343780517579	0		-0.03588486480712891	5.92517822265625	0		
0.0044124221801757815	-0.0010338530540466308	0		0.5003859558105469	-2.423689208984375	0		-1.0163274536132811	0.09117861175537109	0		-0.801912353515625	-2.568309814453125	0		1.428023681640625	-0.7763222045898438	0		3.20195751953125	-0.18967694091796874	0		4.67083740234375	-0.14154814147949218	0		5.5806240234375	0.10592952728271485	0		-0.16964306640625	5.90521337890625	0		
0.004390493869781494	-0.0010066210031509399	0		0.4550816650390625	-2.42703369140625	0		-1.0163406982421874	0.09130168914794921	0		-0.7902666015625	-2.574385986328125	0		1.4309735107421875	-0.7734739379882812	0		3.20191796875	-0.18994996643066406	0		4.675681640625	-0.1500331268310547	0		5.57061328125	0.10558302307128906	0		-0.15396220397949217	5.91503125	0		
0.007434299945831299	0.001970203995704651	0		0.46782049560546873	-2.43024658203125	0		-1.0833260498046875	0.09242390441894531	0		-0.8593505249023438	-2.56425439453125	0		1.4339644775390625	-0.7696226806640625	0		3.219033935546875	-0.1814661102294922	0		4.6687587890625	-0.1443167724609375	0		5.59445263671875	0.0937552719116211	0		-0.15344291687011719	5.9150673828125	0		
0.007458378791809082	0.0019884560108184815	0		0.4788877258300781	-2.414434326171875	0		-1.0112422485351562	0.09543924713134766	0		-0.750669189453125	-2.573816650390625	0		1.43392578125	-0.7697205810546875	0		3.21530126953125	-0.16465072631835936	0		4.6789970703125	-0.12983140563964843	0		5.5847734375	0.11246791076660156	0		-0.019603967666625977	5.936080078125	0		
0.007509791851043701	0.002003528118133545	0		0.5105281372070313	-2.42993994140625	0		-1.0162442626953125	0.09160633087158203	0		-0.7887887573242187	-2.5721669921875	0		1.4308594970703126	-0.7737649536132812	0		3.196068359375	-0.18258160400390624	0		4.670841796875	-0.14303872680664062	0		5.5807119140625	0.10413204956054688	0		-0.019113365173339843	5.93609716796875	0		
0.004543662071228027	-9.380530118942261E-4	0		0.5084169921875	-2.431929931640625	0		-1.020204345703125	0.08874748229980468	0		-0.7210245361328125	-2.582141357421875	0		1.4308878173828126	-0.7738465576171875	0		3.206103759765625	-0.18493218994140626	0		4.67091162109375	-0.14333372497558594	0		5.5807978515625	0.10377713012695312	0		-0.04797621917724609	5.9145576171875	0		
0.0046499109268188475	-9.285789728164672E-4	0		0.4814176635742187	-2.42953515625	0		-1.01604736328125	0.09175397491455078	0		-0.7929811401367187	-2.5759853515625	0		1.43094970703125	-0.7739188842773438	0		3.23410400390625	-0.19153559875488282	0		4.671009765625	-0.14359197998046874	0		5.5850322265625	0.11140431976318359	0		-0.18560643005371094	5.910689453125	0		
0.00478082799911499	-9.219930171966553E-4	0		0.48346112060546875	-2.427582763671875	0		-1.0159119262695313	0.0918101577758789	0		-0.7889141845703125	-2.572002197265625	0		1.434104248046875	-0.7700282592773438	0		3.189662353515625	-0.16299613952636718	0		4.6793330078125	-0.1309368896484375	0		5.5851689453125	0.1111397476196289	0		-0.01777680778503418	5.9361298828125	0		
0.007978753089904785	0.0020351860523223878	0		0.4585977478027344	-2.422212158203125	0		-1.01575634765625	0.09185420989990234	0		-0.7888634643554687	-2.571967041015625	0		1.4342259521484375	-0.7700806884765625	0		3.206466064453125	-0.1853775634765625	0		4.6753720703125	-0.13805447387695313	0		5.59532421875	0.11076947784423828	0		-0.017391096115112303	5.93613427734375	0		
0.005100759029388427	-9.167850017547608E-4	0		0.5105789489746094	-2.430028076171875	0		-1.0155855712890625	0.0918860092163086	0		-0.7548536376953126	-2.577467529296875	0		1.4313094482421875	-0.7740750732421875	0		3.21593701171875	-0.1656133728027344	0		4.6755361328125	-0.13819247436523438	0		5.5954951171875	0.11060403442382813	0		-0.031214494705200196	5.9253544921875	0		
0.005278203010559082	-9.177910089492797E-4	0		0.48171026611328127	-2.429590087890625	0		-1.01540625	0.0919058380126953	0		-0.794739501953125	-2.577833251953125	0		1.4314710693359376	-0.774105224609375	0		3.191943603515625	-0.1763067932128906	0		4.67571044921875	-0.138288818359375	0		5.58567626953125	0.1106438217163086	0		-0.030916074752807617	5.92535400390625	0		
0.005457098960876465	-9.20943021774292E-4	0		0.5088269653320312	-2.43201708984375	0		-1.015226318359375	0.09191443634033203	0		-0.7945902709960937	-2.5778271484375	0		1.43164111328125	-0.7741248168945313	0		3.190322265625	-0.1633171844482422	0		4.6758876953125	-0.13834573364257813	0		5.5858564453125	0.1105764389038086	0		-0.1498406982421875	5.91519775390625	0		
